<?xml version="1.0" encoding="UTF-8" standalone="no"?>
<!-- Created with Inkscape (http://www.inkscape.org/) -->

<svg
   width="256mm"
   height="256mm"
   viewBox="0 0 256 256"
   version="1.1"
   id="svg1"
   inkscape:version="1.4 (e7c3feb100, 2024-10-09)"
   sodipodi:docname="drawing.svg.2025_06_03_11_07_11.0.svg"
   xmlns:inkscape="http://www.inkscape.org/namespaces/inkscape"
   xmlns:sodipodi="http://sodipodi.sourceforge.net/DTD/sodipodi-0.dtd"
   xmlns="http://www.w3.org/2000/svg"
   xmlns:svg="http://www.w3.org/2000/svg">
  <sodipodi:namedview
     id="namedview1"
     pagecolor="#ffffff"
     bordercolor="#000000"
     borderopacity="0.25"
     inkscape:showpageshadow="2"
     inkscape:pageopacity="0.0"
     inkscape:pagecheckerboard="0"
     inkscape:deskcolor="#d1d1d1"
     inkscape:document-units="mm"
     inkscape:zoom="0.48996914"
     inkscape:cx="393.90236"
     inkscape:cy="563.30078"
     inkscape:window-width="1366"
     inkscape:window-height="761"
     inkscape:window-x="0"
     inkscape:window-y="35"
     inkscape:window-maximized="0"
     inkscape:current-layer="layer1"
     showguides="false" />
  <defs
     id="defs1">
    <linearGradient
       id="swatch16">
      <stop
         style="stop-color:#2ead52;stop-opacity:1;"
         offset="0.99989998"
         id="stop18" />
    </linearGradient>
    <linearGradient
       id="swatch16-1">
      <stop
         style="stop-color:#2ead3f;stop-opacity:1;"
         offset="0.02"
         id="stop17" />
    </linearGradient>
  </defs>
  <g
     inkscape:label="Layer 1"
     inkscape:groupmode="layer"
     id="layer1">
    <circle
       id="path35"
       style="fill:#000000;stroke:#000000;stroke-width:0.264583"
       cx="289.44"
       cy="79.379997"
       r="0.071927473" />
    <circle
       id="path36"
       style="fill:#000000;stroke:#000000;stroke-width:0.264583"
       cx="313.20001"
       cy="100.44"
       r="0.071927473" />
    <circle
       id="path37"
       style="fill:#000000;stroke:#000000;stroke-width:0.264583"
       cx="280.25998"
       cy="78.300003"
       r="0.071927473" />
    <rect
       style="opacity:0.66811;fill:#ff7f00;fill-opacity:1;stroke:#23a426;stroke-width:0.264999;stroke-dasharray:none;stroke-opacity:1"
       id="rect47"
       width="256.5"
       height="255.42"
       x="-1.0799981"
       y="-1.373291e-06" />
    <ellipse
       style="opacity:0.66811;fill:#48ff00;fill-opacity:1;fill-rule:evenodd;stroke:#000000;stroke-width:3;stroke-dasharray:none;stroke-opacity:1"
       id="path47"
       cx="130.94998"
       cy="190.89"
       rx="57.509998"
       ry="56.970001" />
    <path
       style="opacity:0.66811;fill:#ffffff;fill-opacity:1;fill-rule:evenodd;stroke:#000000;stroke-width:2;stroke-dasharray:none;stroke-opacity:1"
       d="m 122.22828,190.62417 c -0.18,0.9 -1.44,2.52 -0.54,2.7 0.9,0.18 0.95046,-3.52093 0.54,-2.7 -1.38404,2.76808 -1.95481,6.19925 -2.7,9.18 -0.20363,0.81452 0.30892,1.9277 0,2.7 -1.91167,4.77918 -7.1366,10.5668 -4.32,16.2 1.13092,2.26184 11.02892,1.62 13.5,1.62 2.4965,0 5.71721,-0.5957 8.1,0 0.9654,0.24135 3.23472,1.08264 4.32,0.54 0.3536,-0.1768 2.0079,-1.3158 2.16,-1.62 0.0805,-0.161 -0.12728,-0.41272 0,-0.54 0.12728,-0.12728 0.4595,0.16099 0.54,0 0.28544,-0.57089 0.23762,-1.55524 0.54,-2.16 0.31452,-0.62903 0.76549,-0.99097 1.08,-1.62 0.91583,-1.83165 -1.98001,-8.46002 -3.24,-9.72 -0.12728,-0.12728 -0.41272,0.12728 -0.54,0 -0.24962,-0.24963 0.16302,-1.29396 0,-1.62 -0.82834,-1.65668 -3.12428,-2.58429 -4.32,-3.78 -1.05255,-1.05255 -0.0443,-1.70867 -0.54,-2.7 -1.12367,-2.24735 0.0373,0.57728 -1.08,-0.54 -0.25456,-0.25456 0.11384,-0.73848 0,-1.08 -0.12728,-0.38184 -0.41272,-0.69816 -0.54,-1.08 -0.23308,-0.69926 1.62084,-0.72056 2.16,-1.08 1.34322,-0.89548 0.062,-0.12408 0.54,-1.08 0.34153,-0.68305 1.19639,-0.98459 1.62,-1.62 0.23178,-0.34767 -0.13438,-1.21685 0,-1.62 0.90298,-2.70893 2.42198,-5.43208 1.62,-8.64 -0.34094,-1.36377 -1.69759,-2.39277 -2.16,-3.78 -0.77253,-2.3176 -2.21427,-4.91428 -3.78,-6.48 -0.12728,-0.12728 -0.379,0.0805 -0.54,0 -2.47137,-1.23569 2.29145,0.22381 -1.62,-1.08 -0.81,-0.27 -0.54,0.54 -1.62,0 -0.16099,-0.0805 0.12728,-0.41272 0,-0.54 -0.25456,-0.25456 -0.75801,0.161 -1.08,0 -0.22768,-0.11384 -0.31231,-0.42616 -0.54,-0.54 -0.48936,-0.24468 -2.22081,0 -2.7,0 -2.37648,0 -5.27659,0.41659 -7.02,2.16 -0.83126,0.83126 -1.32873,2.40874 -2.16,3.24 -0.12728,0.12728 -0.41272,-0.12728 -0.54,0 -0.16134,0.16134 0.0174,2.09048 0,2.16 -0.35773,1.43094 -1.56414,2.04828 -2.16,3.24 -0.81479,1.62959 0.44504,6.83007 1.08,8.1 0.37069,0.74137 1.2278,1.3756 1.62,2.16 0.11855,0.23709 0.42146,0.84291 0.54,1.08 0.0805,0.161 -0.17819,0.51454 0,0.54 1.24734,0.17819 2.52,0 3.78,0 z"
       id="path41-2" />
    <path
       style="fill:#398fff;fill-opacity:1;stroke:#000000;stroke-width:1.92828;stroke-dasharray:none;stroke-opacity:1"
       d="m 89.598568,150.23132 c 0,-0.6686 0.720742,-2.0058 0,-2.0058 -0.720742,0 0,2.6744 0,2.0058 0,-2.0058 0,-4.01161 0,-6.01741 0,-4.84736 0,-9.69471 0,-14.54207 0,-1.91417 0.365691,-4.15161 0,-6.01741 -0.751778,-3.83565 -2.110823,-7.68942 -2.702784,-11.53337 -0.48952,-3.17876 0,-6.80942 0,-10.02902 0,-7.52176 0,-15.043521 0,-22.565281 0,-4.345907 0,-8.691814 0,-13.037721 0,-2.076247 -0.440617,-4.475153 0,-6.518859 -1.085602,-0.892857 0.900929,-1.504354 1.081112,-2.005803 0.827877,-2.303953 -0.479497,-7.360155 0,-10.029017 0.543147,-3.023107 0.704144,-6.320912 2.162226,-9.026114 0.22792,-0.422859 0.853194,-0.58004 1.081114,-1.002901 0.460756,-0.854849 0.318769,-2.449366 1.081113,-3.510155 0.67543,-0.93985 1.748383,-1.415567 2.702783,-2.005804 0.558629,-0.345477 1.003193,-1.274858 1.621668,-1.504351 0.853057,-0.316538 1.93832,-0.02868 2.702784,-0.501451 0.424045,-0.262248 0.625274,-0.791472 1.081116,-1.002902 1.05173,-0.487827 2.6172,-0.284994 3.78389,-0.501451 3.52194,-0.65343 8.75171,-1.034691 11.89224,-2.005803 0.24174,-0.07475 0.29881,-0.426699 0.54056,-0.50145 0.91696,-0.283546 2.38613,0.397598 3.24334,0 0.22791,-0.105716 0.31263,-0.395736 0.54056,-0.501451 1.1438,-0.53053 14.60012,0 15.67613,0 1.30942,0 9.48788,-0.613761 10.81113,0 1.38334,0.641633 3.07011,1.074929 4.32445,2.005803 0.79592,0.590676 1.25055,1.582943 2.16223,2.005803 1.76223,0.817377 3.73285,1.47279 5.40556,2.507253 1.60402,0.991988 2.12169,3.356593 3.7839,4.513057 0.64464,0.448512 1.49174,0.588254 2.16222,1.002902 0.75312,0.465756 4.22515,4.830273 4.32446,5.014507 0.2771,0.514128 -0.15206,1.441586 0,2.005804 0.3811,1.414141 1.31341,2.581863 1.62166,4.011606 0.31078,1.441517 0.22977,3.071542 0.54056,4.513056 0.11175,0.518312 0.46988,0.979861 0.54056,1.504354 0.56128,4.165386 0,8.843167 0,13.037718 0,1.326323 -0.34545,3.231244 0,4.513059 0.23533,0.873255 0.81454,1.641756 1.08111,2.507253 0.61426,1.994397 0,9.64522 0,12.034818 0,8.023214 0,16.046431 0,24.069641 0,9.86186 0,19.72373 0,29.58559 0,2.00581 0,4.01161 0,6.01741 0,1.00291 0,2.00581 0,3.00871 0,0.16715 -0.18019,0.50145 0,0.50145 0.0774,0 -0.94631,-1.44183 -2.16223,-2.0058 -0.16116,-0.0748 -0.41314,0.11819 -0.54055,0 -0.12741,-0.1182 0,-0.3343 0,-0.50145 -0.18019,-0.16715 -0.32854,-0.37033 -0.54056,-0.50145 -0.47411,-0.29321 -1.21876,-0.1277 -1.62167,-0.50146 -0.12741,-0.11819 0.12741,-0.38325 0,-0.50145 -0.2849,-0.26429 -0.74588,-0.29413 -1.08111,-0.50145 -0.84462,-0.52234 -0.37854,-0.9027 -2.16223,-2.0058 -1.07088,0.05 -0.25566,-0.73862 -0.54055,-1.0029 -0.25483,-0.23639 -0.73924,0.10571 -1.08112,0 -4.09618,-1.26662 0.1952,0.18107 -1.08111,-1.0029 -0.94142,-0.87332 -3.27119,-0.55312 -3.78389,-1.50436 -0.0806,-0.1495 0,-0.3343 0,-0.50145 0,-1.68964 -0.60407,-4.83778 0,-6.51886 0.39369,-1.09566 0.82238,-1.80868 1.08111,-3.0087 0.22756,-1.05552 0,-2.42344 0,-3.51016 0,-1.40837 0.18079,-1.17231 0.54056,-2.50725 0.43892,-1.62868 0,-3.88558 0,-5.51596 0,-4.01161 0,-8.02321 0,-12.03482 0,-1.84268 0.38408,-4.23591 0,-6.01741 -0.26208,-1.215576 -1.34656,-2.234076 -1.62167,-3.510154 -0.17007,-0.788791 0.21021,-1.7272 0,-2.507256 -0.39704,-1.47326 -0.80373,-2.969128 -1.08112,-4.513055 -0.0889,-0.494629 0.17094,-1.028636 0,-1.504354 -0.20544,-0.571741 -0.83983,-0.944787 -1.08111,-1.504352 -0.46827,-1.085982 0.25833,-1.526522 -0.54056,-3.008704 -0.24174,-0.448512 0.0889,-1.009724 0,-1.504351 -0.25545,-1.421798 -0.54055,-2.157134 -0.54055,-3.510157 0,-0.902213 0.30079,-2.171615 0,-3.008705 -0.12741,-0.354578 -0.46155,-0.6364 -0.54056,-1.002901 -0.14135,-0.655617 0.32232,-1.407788 0,-2.005804 -1.11901,-2.076106 -1.17538,-1.527591 -1.62167,-4.011606 -0.33788,-1.88056 -0.59447,-3.710217 -1.08111,-5.515958 -0.17481,-0.648638 0.22791,-1.371511 0,-2.005803 -0.25482,-0.709158 -0.78185,-1.311748 -1.08111,-2.005804 -0.37117,-0.860778 -0.65394,-2.822777 -1.08112,-4.011606 -0.22792,-0.63429 0.14135,-1.350184 0,-2.005803 -0.079,-0.366501 -0.41314,-0.648321 -0.54055,-1.002902 -0.16217,-0.451305 0.16216,-1.053045 0,-1.504351 -0.47059,-1.309603 -1.22778,-1.547099 -1.62167,-3.008705 -0.29876,-1.108563 0.22276,-1.091069 -0.54056,-2.507253 -0.30985,-0.574872 -1.12788,-0.697523 -1.62167,-1.002901 -1.8086,-1.118506 -2.28933,-1.312586 -3.78389,-2.005803 -0.57281,-0.265686 -1.54974,0.189392 -2.16223,0 -0.38223,-0.118194 -0.68604,-0.428151 -1.08111,-0.501452 -0.53007,-0.09834 -1.10885,0.158574 -1.62167,0 -0.61634,-0.190581 -1.04059,-0.733379 -1.62167,-1.002902 -0.13159,-0.06103 -2.16951,-0.336551 -2.70278,-0.50145 -1.00058,-0.309397 -10.15376,-0.304908 -10.81113,0 -1.25976,0.584309 -1.53562,0.140543 -2.70278,0.50145 -0.82403,0.254806 -1.72976,0.777242 -2.70279,1.002902 -0.52442,0.121619 -1.10885,-0.158572 -1.62167,0 -1.23718,0.382559 -4.09386,2.556348 -4.865,3.510156 -0.83307,1.030391 -1.02154,2.39673 -1.62167,3.510155 -0.33552,0.622489 -1.37039,1.807955 -1.62167,2.507253 -0.11396,0.317146 0.0707,0.675095 0,1.002901 0.15918,1.01468 -0.87062,1.628558 -1.08111,2.507256 -0.60566,2.528262 -0.77702,4.669664 -1.62167,7.020311 -0.37801,1.051989 0.2907,2.431483 0,3.510155 -0.1382,0.512792 -0.42882,0.986041 -0.54056,1.50435 -0.66036,3.062935 0,10.934915 0,14.542075 0,0.668602 0.22791,1.371511 0,2.005804 -0.0806,0.224253 -0.45997,0.277192 -0.54056,0.501449 -0.48957,1.362469 0,3.610117 0,5.014508 0,5.181657 0,10.363317 0,15.544977 0,3.32621 0.25482,-0.70916 -0.54055,1.50435 -0.22793,0.63429 0.22791,1.37152 0,2.0058 -0.0806,0.22425 -0.45998,0.27719 -0.54056,0.50145 -0.42975,1.19599 -0.0185,2.55879 -0.54056,4.01161 -0.68963,1.91922 0,12.26009 0,15.04352 0,4.01161 0,8.02322 0,12.03482 0,0.78851 0.97726,1.69703 0.54056,2.50726 -0.43724,0.81121 -1.48282,1.18922 -2.162226,1.50435 -1.142067,-0.13062 -0.205319,0.79557 -0.540558,1.0029 -0.61815,0.38228 -1.6369,0.0141 -2.162226,0.50145 -0.127409,0.1182 0.149925,0.40873 0,0.50145 -0.38267,1.52895 -1.497734,0.19324 -2.162225,0.50145 -0.455837,0.21143 -0.697567,0.69158 -1.081113,1.00291 -1.250203,1.01478 -2.522597,2.0058 -3.783894,3.0087 z"
       id="path2" />
    <text
       xml:space="preserve"
       style="font-size:11.3961px;text-align:start;writing-mode:lr-tb;direction:ltr;text-anchor:start;fill:#398fff;fill-opacity:1;stroke:#000000;stroke-width:0.265;stroke-dasharray:none;stroke-opacity:1"
       x="104.17168"
       y="228.98114"
       id="text4"
       transform="scale(0.98312176,1.017168)"><tspan
         sodipodi:role="line"
         id="tspan4"
         style="font-style:normal;font-variant:normal;font-weight:normal;font-stretch:normal;font-family:'Be Vietnam';-inkscape-font-specification:'Be Vietnam';stroke-width:0.265;stroke-dasharray:none"
         x="104.17168"
         y="228.98114">WHO5673</tspan></text>
    <text
       xml:space="preserve"
       style="font-size:11.3961px;text-align:start;writing-mode:lr-tb;direction:ltr;text-anchor:start;fill:#ff0000;fill-opacity:1;stroke:#000000;stroke-width:0;stroke-dasharray:none;stroke-opacity:1"
       x="101.82289"
       y="156.47968"
       id="text4-5"
       transform="scale(0.98312176,1.017168)"><tspan
         sodipodi:role="line"
         style="font-style:normal;font-variant:normal;font-weight:normal;font-stretch:normal;font-family:'Be Vietnam';-inkscape-font-specification:'Be Vietnam';fill:#ff0000;fill-opacity:1;stroke-width:0;stroke-dasharray:none"
         x="101.82289"
         y="156.47968"
         id="tspan5">genpasswd</tspan></text>
    <text
       xml:space="preserve"
       style="font-style:normal;font-variant:normal;font-weight:normal;font-stretch:normal;font-size:15.6412px;font-family:'Be Vietnam';-inkscape-font-specification:'Be Vietnam';text-align:start;writing-mode:lr-tb;direction:ltr;text-anchor:start;fill:#c400bd;fill-opacity:1;stroke:#000000;stroke-width:0;stroke-dasharray:none;stroke-opacity:1"
       x="54.744423"
       y="17.407038"
       id="text6"
       transform="scale(0.9875999,1.0125558)"><tspan
         sodipodi:role="line"
         id="tspan6"
         style="font-weight:bold;stroke-width:0;fill:#c400bd;fill-opacity:1"
         x="54.744423"
         y="17.407038">password-generate</tspan></text>
  </g>
</svg>
